<svg xmlns="http://www.w3.org/2000/svg" width="40.511" height="36.1" viewBox="0 0 40.511 36.1"><defs><style>.a{opacity:0.5;}.b{fill:#324b4d;}</style></defs><g class="a" transform="translate(0 -20.9)"><g transform="translate(0 20.9)"><g transform="translate(0 0)"><path class="b" d="M36.311,23.971H33.768V21.955a1.055,1.055,0,1,0-2.111,0v2.016H21.316V21.955a1.055,1.055,0,1,0-2.111,0v2.016H8.759V21.955a1.055,1.055,0,0,0-2.111,0v2.016H4.21A4.27,4.27,0,0,0,0,28.245V52.779A4.211,4.211,0,0,0,4.21,57H36.3a4.209,4.209,0,0,0,4.21-4.21V28.245A4.254,4.254,0,0,0,36.311,23.971Zm2.1,28.808a2.105,2.105,0,0,1-2.089,2.111H4.21a2.1,2.1,0,0,1-2.1-2.1V28.245a2.147,2.147,0,0,1,2.1-2.163H6.648v1.53a1.055,1.055,0,0,0,2.111,0v-1.53H19.206v1.53a1.055,1.055,0,1,0,2.111,0v-1.53H31.658v1.53a1.055,1.055,0,1,0,2.111,0v-1.53h2.543a2.147,2.147,0,0,1,2.1,2.163Z" transform="translate(0 -20.9)"/></g></g><g transform="translate(14.584 32.94)"><g transform="translate(0 0)"><path class="b" d="M141.1,135h-1.847a1.055,1.055,0,0,0,0,2.111H141.1a1.055,1.055,0,1,0,0-2.111Z" transform="translate(-138.2 -135)"/></g></g><g transform="translate(21.928 32.94)"><g transform="translate(0 0)"><path class="b" d="M210.7,135h-1.847a1.055,1.055,0,1,0,0,2.111H210.7a1.055,1.055,0,1,0,0-2.111Z" transform="translate(-207.8 -135)"/></g></g><g transform="translate(29.336 32.94)"><g transform="translate(0 0)"><path class="b" d="M280.9,135h-1.847a1.055,1.055,0,0,0,0,2.111H280.9a1.055,1.055,0,1,0,0-2.111Z" transform="translate(-278 -135)"/></g></g><g transform="translate(14.584 40.222)"><path class="b" d="M141.1,204h-1.847a1.055,1.055,0,0,0,0,2.111H141.1a1.055,1.055,0,0,0,0-2.111Z" transform="translate(-138.2 -204)"/></g><g transform="translate(7.176 40.222)"><path class="b" d="M70.912,204H69.055a1.055,1.055,0,0,0,0,2.111H70.9A1.055,1.055,0,0,0,70.912,204Z" transform="translate(-68 -204)"/></g><g transform="translate(21.928 40.222)"><path class="b" d="M210.7,204h-1.847a1.055,1.055,0,1,0,0,2.111H210.7a1.055,1.055,0,1,0,0-2.111Z" transform="translate(-207.8 -204)"/></g><g transform="translate(29.336 40.222)"><path class="b" d="M280.9,204h-1.847a1.055,1.055,0,0,0,0,2.111H280.9a1.055,1.055,0,1,0,0-2.111Z" transform="translate(-278 -204)"/></g><g transform="translate(14.584 47.397)"><g transform="translate(0 0)"><path class="b" d="M141.1,272h-1.847a1.055,1.055,0,1,0,0,2.111H141.1a1.055,1.055,0,1,0,0-2.111Z" transform="translate(-138.2 -272)"/></g></g><g transform="translate(7.176 47.397)"><g transform="translate(0 0)"><path class="b" d="M70.912,272H69.055a1.055,1.055,0,1,0,0,2.111H70.9A1.055,1.055,0,0,0,70.912,272Z" transform="translate(-68 -272)"/></g></g><g transform="translate(21.928 47.397)"><g transform="translate(0 0)"><path class="b" d="M210.7,272h-1.847a1.055,1.055,0,1,0,0,2.111H210.7a1.055,1.055,0,1,0,0-2.111Z" transform="translate(-207.8 -272)"/></g></g></g></svg>