<svg xmlns="http://www.w3.org/2000/svg" width="326.772" height="326.772" viewBox="0 0 326.772 326.772">
  <path id="check-circle" d="M334.772,171.386A163.386,163.386,0,1,1,171.386,8,163.386,163.386,0,0,1,334.772,171.386ZM152.487,257.9,273.709,136.676a10.541,10.541,0,0,0,0-14.907L258.8,106.862a10.541,10.541,0,0,0-14.908,0l-98.861,98.861L98.878,159.566a10.542,10.542,0,0,0-14.908,0L69.063,174.473a10.541,10.541,0,0,0,0,14.907L137.58,257.9a10.541,10.541,0,0,0,14.908,0Z" transform="translate(-8 -8)" fill="#45bcec"/>
</svg>
