<svg xmlns="http://www.w3.org/2000/svg" width="25.827" height="30" viewBox="0 0 25.827 30"><defs><style>.a{fill:#324b4d;}</style></defs><g transform="translate(-35.61)"><g transform="translate(35.61)"><path class="a" d="M59.918,11.389H57.631V9.152a9.113,9.113,0,1,0-18.227,0v2.237H37.129a1.528,1.528,0,0,0-1.519,1.529V28.471A1.528,1.528,0,0,0,37.129,30H59.918a1.528,1.528,0,0,0,1.519-1.529V12.918A1.528,1.528,0,0,0,59.918,11.389ZM40.544,9.152A8.024,8.024,0,0,1,42.9,3.491a7.922,7.922,0,0,1,11.252,0,8.012,8.012,0,0,1,2.342,5.661v2.237H40.544Zm19.374,19.7H37.129a.386.386,0,0,1-.38-.382V12.918a.386.386,0,0,1,.38-.382H59.918a.386.386,0,0,1,.38.382V28.471h0A.386.386,0,0,1,59.918,28.853Z" transform="translate(-35.61)"/></g><g transform="translate(45.865 17.388)"><path class="a" d="M213.285,296.763a2.676,2.676,0,0,0-.57,5.287v2.738a.57.57,0,1,0,1.139,0V302.05a2.676,2.676,0,0,0-.57-5.287Zm0,4.2a1.529,1.529,0,1,1,1.519-1.529A1.526,1.526,0,0,1,213.285,300.967Z" transform="translate(-210.626 -296.763)"/></g></g></svg>