<svg xmlns="http://www.w3.org/2000/svg" width="37.812" height="37.746" viewBox="0 0 37.812 37.746">
  <path id="paypal" d="M35.977,8.5a9.244,9.244,0,0,0-3.24-2.381,7.427,7.427,0,0,0-1.243-2.094C29.382,1.52,25.372.14,20.2.14,18.654.14,12.535.075,9.093,0A2.947,2.947,0,0,0,6.161,2.3L.072,29.686A2.94,2.94,0,0,0,2.94,33.269H4.753l-.2.893a2.94,2.94,0,0,0,2.869,3.583h7.37a2.947,2.947,0,0,0,2.883-2.364l1.306-6.539,6.9-.079.057-.006A12.994,12.994,0,0,0,31.4,26.6a13.544,13.544,0,0,0,3.726-3.781A16.973,16.973,0,0,0,37.6,16.281C38.156,13.056,37.609,10.439,35.977,8.5ZM2.376,30.781a.713.713,0,0,1-.141-.612L8.324,2.78a.723.723,0,0,1,.72-.563c3.455.075,9.6.14,11.158.14,4.439,0,7.937,1.13,9.6,3.1,1.191,1.413,1.573,3.424,1.136,5.975-.681,3.975-2.45,6.954-5.259,8.856a11.111,11.111,0,0,1-4.424,1.784l-6.854.079a1.935,1.935,0,0,0-2.023,1.53l-1.356,6.792a.724.724,0,0,1-.709.581H2.94A.711.711,0,0,1,2.376,30.781ZM35.418,15.907c-.681,3.975-2.45,6.954-5.258,8.856a11.111,11.111,0,0,1-4.424,1.784l-6.854.079a1.935,1.935,0,0,0-2.023,1.53L15.5,34.946a.724.724,0,0,1-.709.581H7.423a.723.723,0,0,1-.7-.882l.306-1.376h3.286A2.948,2.948,0,0,0,13.194,30.9l1.306-6.54,6.9-.079.057-.006a12.994,12.994,0,0,0,5.464-2.157,13.557,13.557,0,0,0,3.726-3.781,16.979,16.979,0,0,0,2.475-6.536,13.26,13.26,0,0,0,.2-2.778,5.945,5.945,0,0,1,.963.9C35.473,11.345,35.855,13.355,35.418,15.907Zm0,0" transform="translate(0 0.001)" fill="#364954"/>
</svg>
