<svg xmlns="http://www.w3.org/2000/svg" xmlns:xlink="http://www.w3.org/1999/xlink" width="461.869" height="1255.685" viewBox="0 0 461.869 1255.685">
  <defs>
    <linearGradient id="linear-gradient" y1="0.5" x2="1" y2="0.5" gradientUnits="objectBoundingBox">
      <stop offset="0" stop-color="aqua"/>
      <stop offset="1" stop-color="blue"/>
    </linearGradient>
  </defs>
  <g id="Layer_2" data-name="Layer 2" transform="translate(-0.032)" opacity="0.4">
    <g id="OBJECTS" transform="translate(0.032)">
      <path id="Path_1573" data-name="Path 1573" d="M461.9,1251.771A407.876,407.876,0,0,1,337.23,1036.553c-3.738-17.59-6.376-36.236-8.8-54.09-5.365-37.907-10.95-77.134-27.7-112.138C273.6,813.772,221.661,775.733,171.4,738.793c-35.928-26.385-73.044-53.475-101.408-87.424C32.434,606.514,9.61,547.894,4.289,481.975A425.6,425.6,0,0,1,31.466,296.529C73.507,185.886,151.7,92.789,235.909,0h-3.87C148.266,92.349,70.692,185.182,28.74,295.517A429.072,429.072,0,0,0,1.255,482.194C6.8,548.73,29.839,607.921,67.79,653.348c28.628,34.213,65.964,61.566,101.936,87.952,49.957,36.588,101.584,74.407,128.321,130.3,16.579,34.609,21.988,73.616,27.441,111.3,2.507,17.9,5.145,36.412,8.8,54.31a410.47,410.47,0,0,0,127.53,218.472Z" transform="translate(-0.032)" opacity="0.4" fill="url(#linear-gradient)"/>
    </g>
  </g>
</svg>
