<svg xmlns="http://www.w3.org/2000/svg" xmlns:xlink="http://www.w3.org/1999/xlink" width="1321.666" height="1241.767" viewBox="0 0 1321.666 1241.767">
  <defs>
    <linearGradient id="linear-gradient" y1="0.5" x2="1" y2="0.5" gradientUnits="objectBoundingBox">
      <stop offset="0" stop-color="aqua"/>
      <stop offset="1" stop-color="blue"/>
    </linearGradient>
  </defs>
  <g id="Layer_2" data-name="Layer 2" transform="translate(0 0.003)" opacity="0.4">
    <g id="OBJECTS" transform="translate(0 -0.003)">
      <path id="Path_1570" data-name="Path 1570" d="M1260.282,1089.7A560.787,560.787,0,0,0,941.7,840.6c-47.66-14.257-97.662-22.1-145.98-29.706-36.978-5.834-75.27-11.833-112.207-20.543A460.951,460.951,0,0,1,560.253,743.18c-41.086-23.584-72.394-53.042-93.636-87.514C421.012,581.711,424.668,490.5,428.243,402.41c3.369-84.309,6.9-171.494-32.006-245.08-20.872-39.443-53-72.887-95.485-99.347A376.063,376.063,0,0,0,169.07,8.228C113.029-1.8,56.288-1.468,0,2.887V5.6C56.206,1.243,112.741.915,168.454,10.94a374.215,374.215,0,0,1,130.737,49.3c42.072,26.213,73.955,59.329,94.5,98.361,38.58,72.928,35.088,159.744,31.678,243.683-3.574,88.541-7.272,180.081,38.786,254.735,21.488,34.882,53.412,64.629,94.5,88.459a465.091,465.091,0,0,0,124.245,47.5c36.978,8.834,75.352,14.873,112.412,20.543,48.235,7.56,98.114,15.407,145.61,29.623a557.747,557.747,0,0,1,317.022,247.874,548.918,548.918,0,0,1,60.931,150.746h2.794A552.369,552.369,0,0,0,1260.282,1089.7Z" transform="translate(0 0.003)" opacity="0.55" fill="url(#linear-gradient)"/>
    </g>
  </g>
</svg>
