<svg xmlns="http://www.w3.org/2000/svg" width="32" height="33.478" viewBox="0 0 32 33.478"><defs><style>.a{fill:#324b4d;}</style></defs><g transform="translate(-11.328)"><g transform="translate(11.328 16.782)"><g transform="translate(0)"><path class="a" d="M27.328,257.323a16.018,16.018,0,0,0-16,16,.7.7,0,1,0,1.391,0,14.609,14.609,0,0,1,29.217,0,.7.7,0,1,0,1.391,0A16.018,16.018,0,0,0,27.328,257.323Z" transform="translate(-11.328 -257.323)"/></g></g><g transform="translate(19.676)"><g transform="translate(0)"><path class="a" d="M146.98,0a7.652,7.652,0,1,0,7.652,7.652A7.661,7.661,0,0,0,146.98,0Zm0,13.913a6.261,6.261,0,1,1,6.261-6.261A6.269,6.269,0,0,1,146.98,13.913Z" transform="translate(-139.328)"/></g></g></g></svg>
