<svg xmlns="http://www.w3.org/2000/svg" width="132.917" height="159.316" viewBox="0 0 132.917 159.316"><defs><style>.a{fill:#304959;}</style></defs><path class="a" d="M125.4,76.743A37.128,37.128,0,0,0,152.536,65.5,37.127,37.127,0,0,0,163.777,38.37,37.133,37.133,0,0,0,152.535,11.24a38.363,38.363,0,0,0-54.261,0A37.129,37.129,0,0,0,87.031,38.37,37.127,37.127,0,0,0,98.274,65.5,37.137,37.137,0,0,0,125.4,76.743Zm0,0" transform="translate(-59.95)"/><path class="a" d="M132.6,292.866A94.782,94.782,0,0,0,131.3,282.8a79.316,79.316,0,0,0-2.476-10.121,49.992,49.992,0,0,0-4.161-9.439,35.621,35.621,0,0,0-6.274-8.176,27.663,27.663,0,0,0-9.013-5.663,31.149,31.149,0,0,0-11.506-2.082c-1.626,0-3.2.667-6.237,2.645-1.869,1.219-4.056,2.629-6.5,4.189a37.227,37.227,0,0,1-8.406,3.7,32.642,32.642,0,0,1-20.563,0,37.14,37.14,0,0,1-8.4-3.7c-2.418-1.545-4.605-2.955-6.5-4.191-3.034-1.978-4.608-2.645-6.234-2.645a31.109,31.109,0,0,0-11.5,2.085,27.64,27.64,0,0,0-9.014,5.663,35.625,35.625,0,0,0-6.272,8.175,50.091,50.091,0,0,0-4.161,9.441A79.5,79.5,0,0,0,1.609,282.8,94.442,94.442,0,0,0,.318,292.87C.107,295.919,0,299.082,0,302.278c0,8.316,2.644,15.049,7.857,20.014,5.149,4.9,11.962,7.385,20.246,7.385h76.711c8.285,0,15.1-2.484,20.245-7.385,5.214-4.962,7.858-11.7,7.858-20.015C132.916,299.067,132.808,295.9,132.6,292.866Zm0,0" transform="translate(0 -170.361)"/></svg>