<svg xmlns="http://www.w3.org/2000/svg" width="26" height="26" viewBox="0 0 26 26">
  <g id="apartment" transform="translate(1 1)">
    <g id="Group_252" data-name="Group 252" transform="translate(-1 -1)">
      <g id="Group_251" data-name="Group 251" transform="translate(0)">
        <path id="Path_1574" data-name="Path 1574" d="M24.566,24.133H22.4V1.6h.867a.409.409,0,0,0,.433-.433V-.567A.409.409,0,0,0,23.267-1H.733A.409.409,0,0,0,.3-.567V1.167A.409.409,0,0,0,.733,1.6H1.6V24.133H-.567A.409.409,0,0,0-1,24.566.409.409,0,0,0-.567,25H24.566a.433.433,0,0,0,0-.867ZM1.167-.133H22.833V.733H1.167ZM14.6,24.133V17.2h1.733v6.933H14.6Zm2.6,0V17.2h1.733v6.933H17.2Zm2.6,0V16.767a.409.409,0,0,0-.433-.433h-5.2a.409.409,0,0,0-.433.433v7.367H2.467V1.6H21.533V24.133Z" transform="translate(1 1)" fill="#364954"/>
        <path id="Path_1575" data-name="Path 1575" d="M91.7,84.333H84.767a.409.409,0,0,0-.433.433v3.467a.409.409,0,0,0,.433.433H91.7a.409.409,0,0,0,.433-.433V84.766A.409.409,0,0,0,91.7,84.333Zm-6.5.867h2.6v2.6H85.2Zm6.067,2.6h-2.6V85.2h2.6Z" transform="translate(-80.001 -80)" fill="#364954"/>
        <path id="Path_1576" data-name="Path 1576" d="M279.434,84.333H272.5a.409.409,0,0,0-.433.433v3.467a.409.409,0,0,0,.433.433h6.933a.409.409,0,0,0,.433-.433V84.766A.409.409,0,0,0,279.434,84.333Zm-6.5.867h2.6v2.6h-2.6ZM279,87.8h-2.6V85.2H279Z" transform="translate(-258.2 -80)" fill="#364954"/>
        <path id="Path_1577" data-name="Path 1577" d="M91.7,203.8H84.767a.409.409,0,0,0-.433.433V207.7a.409.409,0,0,0,.433.433H91.7a.409.409,0,0,0,.433-.433v-3.467A.409.409,0,0,0,91.7,203.8Zm-6.5.867h2.6v2.6H85.2Zm6.067,2.6h-2.6v-2.6h2.6Z" transform="translate(-80.001 -193.4)" fill="#364954"/>
        <path id="Path_1578" data-name="Path 1578" d="M91.7,340.333H84.767a.409.409,0,0,0-.433.433v3.467a.409.409,0,0,0,.433.433H91.7a.409.409,0,0,0,.433-.433v-3.467A.409.409,0,0,0,91.7,340.333Zm-6.5.867h2.6v2.6H85.2Zm6.067,2.6h-2.6v-2.6h2.6Z" transform="translate(-80.001 -323)" fill="#364954"/>
        <path id="Path_1579" data-name="Path 1579" d="M279.434,203.8H272.5a.409.409,0,0,0-.433.433V207.7a.409.409,0,0,0,.433.433h6.933a.409.409,0,0,0,.433-.433v-3.467A.409.409,0,0,0,279.434,203.8Zm-6.5.867h2.6v2.6h-2.6Zm6.067,2.6h-2.6v-2.6H279Z" transform="translate(-258.2 -193.4)" fill="#364954"/>
      </g>
    </g>
  </g>
</svg>
