<svg xmlns="http://www.w3.org/2000/svg" width="27.313" height="24.339" viewBox="0 0 27.313 24.339"><defs><style>.a{fill:#45BCEC;}</style></defs><g transform="translate(0)"><g transform="translate(0 0)"><g transform="translate(0 0)"><path class="a" d="M24.481,22.97H22.767V21.611a.711.711,0,1,0-1.423,0V22.97H14.371V21.611a.711.711,0,1,0-1.423,0V22.97H5.905V21.611a.711.711,0,1,0-1.423,0V22.97H2.839A2.879,2.879,0,0,0,0,25.852V42.393a2.839,2.839,0,0,0,2.839,2.846H24.474A2.837,2.837,0,0,0,27.313,42.4V25.852A2.868,2.868,0,0,0,24.481,22.97ZM25.9,42.393a1.42,1.42,0,0,1-1.409,1.423H2.839A1.415,1.415,0,0,1,1.423,42.4V25.852a1.447,1.447,0,0,1,1.416-1.458H4.482v1.032a.711.711,0,1,0,1.423,0V24.393h7.043v1.032a.711.711,0,1,0,1.423,0V24.393h6.972v1.032a.711.711,0,1,0,1.423,0V24.393h1.715A1.447,1.447,0,0,1,25.9,25.852Z" transform="translate(0 -20.9)"/></g></g><g transform="translate(9.832 8.118)"><path class="a" d="M140.157,135h-1.245a.711.711,0,1,0,0,1.423h1.245a.711.711,0,0,0,0-1.423Z" transform="translate(-138.2 -135)"/></g><g transform="translate(14.784 8.118)"><path class="a" d="M209.757,135h-1.245a.711.711,0,1,0,0,1.423h1.245a.711.711,0,0,0,0-1.423Z" transform="translate(-207.8 -135)"/></g><g transform="translate(19.779 8.118)"><path class="a" d="M279.956,135h-1.245a.711.711,0,0,0,0,1.423h1.245a.711.711,0,1,0,0-1.423Z" transform="translate(-278 -135)"/></g><g transform="translate(9.832 13.027)"><path class="a" d="M140.157,204h-1.245a.711.711,0,1,0,0,1.423h1.245a.711.711,0,0,0,0-1.423Z" transform="translate(-138.2 -204)"/></g><g transform="translate(4.838 13.027)"><path class="a" d="M69.964,204H68.711a.711.711,0,1,0,0,1.423h1.245A.711.711,0,0,0,69.964,204Z" transform="translate(-68 -204)"/></g><g transform="translate(14.784 13.027)"><path class="a" d="M209.757,204h-1.245a.711.711,0,1,0,0,1.423h1.245a.711.711,0,0,0,0-1.423Z" transform="translate(-207.8 -204)"/></g><g transform="translate(19.779 13.027)"><path class="a" d="M279.956,204h-1.245a.711.711,0,1,0,0,1.423h1.245a.711.711,0,1,0,0-1.423Z" transform="translate(-278 -204)"/></g><g transform="translate(9.832 17.865)"><path class="a" d="M140.157,272h-1.245a.711.711,0,1,0,0,1.423h1.245a.711.711,0,1,0,0-1.423Z" transform="translate(-138.2 -272)"/></g><g transform="translate(4.838 17.865)"><path class="a" d="M69.964,272H68.711a.711.711,0,1,0,0,1.423h1.245A.711.711,0,0,0,69.964,272Z" transform="translate(-68 -272)"/></g><g transform="translate(14.784 17.865)"><path class="a" d="M209.757,272h-1.245a.711.711,0,1,0,0,1.423h1.245a.711.711,0,1,0,0-1.423Z" transform="translate(-207.8 -272)"/></g></g></svg>