<svg xmlns="http://www.w3.org/2000/svg" xmlns:xlink="http://www.w3.org/1999/xlink" width="1149.739" height="1080.233" viewBox="0 0 1149.739 1080.233"><defs><style>.a{opacity:0.4;}.b{opacity:0.55;fill:url(#a);}</style><linearGradient id="a" y1="0.5" x2="1" y2="0.5" gradientUnits="objectBoundingBox"><stop offset="0" stop-color="aqua"/><stop offset="1" stop-color="blue"/></linearGradient></defs><g class="a" transform="translate(0 0.003)"><g transform="translate(0 -0.003)"><path class="b" d="M1096.34,947.95A487.839,487.839,0,0,0,819.2,731.248c-41.46-12.4-84.958-19.229-126.99-25.841-32.168-5.075-65.479-10.294-97.611-17.871A400.989,400.989,0,0,1,487.374,646.5c-35.742-20.516-62.977-46.143-81.455-76.13-39.673-64.335-36.492-143.682-33.383-220.312,2.931-73.342,6-149.186-27.843-213.2-18.157-34.312-46.107-63.406-83.064-86.423A327.144,327.144,0,0,0,147.077,7.157C98.325-1.564,48.966-1.278,0,2.511V4.87C48.895,1.081,98.075.8,146.541,9.516a325.535,325.535,0,0,1,113.73,42.89c36.6,22.8,64.335,51.611,82.206,85.566C376.038,201.413,373,276.935,370.034,349.956c-3.11,77.023-6.326,156.656,33.74,221.6,18.693,30.345,46.464,56.222,82.206,76.952a404.6,404.6,0,0,0,108.083,41.317c32.167,7.684,65.55,12.939,97.789,17.871,41.961,6.576,85.351,13.4,126.669,25.77A485.194,485.194,0,0,1,1094.3,949.094a477.513,477.513,0,0,1,53,131.136h2.43A480.513,480.513,0,0,0,1096.34,947.95Z" transform="translate(0 0.003)"/></g></g></svg>