<svg xmlns="http://www.w3.org/2000/svg" xmlns:xlink="http://www.w3.org/1999/xlink" width="835.829" height="491.65" viewBox="0 0 835.829 491.65"><defs><style>.a,.b{opacity:0.4;}.b{fill:url(#a);}</style><linearGradient id="a" y1="0.5" x2="1" y2="0.5" gradientUnits="objectBoundingBox"><stop offset="0" stop-color="aqua"/><stop offset="1" stop-color="blue"/></linearGradient></defs><g class="a" transform="matrix(0.899, -0.438, 0.438, 0.899, -0.007, 381.431)"><g transform="translate(0 0.016)"><path class="b" d="M825.747,64.6c-52.9-49.918-130.3-73.2-201.956-60.755-30.529,5.313-60.079,16.733-88.557,27.779C502.142,44.4,467.907,57.634,432.251,61.246c-55.931,5.686-110.859-12.375-163.994-29.83C225.354,17.34,181.076,2.8,135.958.351A256.512,256.512,0,0,0,0,31.346v1.748A254.974,254.974,0,0,1,135.865,1.866c44.931,2.447,89.093,16.966,131.81,30.995,46.446,15.264,94.267,30.995,143.02,30.995,7.178,0,14.4-.35,21.6-1.072,35.889-3.659,70.193-16.919,103.379-29.737,28.5-11.023,57.982-22.4,88.371-27.686C695.266-7.013,772.147,16.105,824.7,65.72a230.061,230.061,0,0,1,43.7,56.91h1.748a231.834,231.834,0,0,0-44.4-58.028Z" transform="translate(0 -0.016)"/></g></g></svg>