<svg xmlns="http://www.w3.org/2000/svg" width="31.999" height="21.333" viewBox="0 0 31.999 21.333"><defs><style>.a{fill:#324b4d;}</style></defs><g transform="translate(0 -85.333)"><g transform="translate(0 85.333)"><path class="a" d="M30.358,85.333H1.641A1.646,1.646,0,0,0,0,86.974v18.051a1.646,1.646,0,0,0,1.641,1.641H30.358A1.646,1.646,0,0,0,32,105.025V86.974A1.646,1.646,0,0,0,30.358,85.333Zm-.616,1.231-12.8,9.6a1.716,1.716,0,0,1-1.888,0l-12.8-9.6ZM22.906,96.8l6.974,8.615c.007.009.016.015.023.023H2.1c.007-.008.016-.014.023-.023L9.093,96.8a.615.615,0,0,0-.957-.775l-6.906,8.531V87.333l13.087,9.815a2.937,2.937,0,0,0,3.364,0l13.087-9.815v17.22l-6.906-8.531a.615.615,0,0,0-.957.775Z" transform="translate(0 -85.333)"/></g></g></svg>