<svg xmlns="http://www.w3.org/2000/svg" width="15.866" height="27.999" viewBox="0 0 15.866 27.999"><defs><style>.a{fill:#324b4d;}</style></defs><g transform="translate(-110.933)"><g transform="translate(116.066 1.4)"><g transform="translate(0)"><path class="a" d="M209.934,25.6h-4.666a.467.467,0,1,0,0,.933h4.666a.467.467,0,1,0,0-.933Z" transform="translate(-204.801 -25.6)"/></g></g><g transform="translate(123.532 1.4)"><g transform="translate(0)"><path class="a" d="M342.267,25.6H341.8a.467.467,0,0,0,0,.933h.467a.467.467,0,0,0,0-.933Z" transform="translate(-341.334 -25.6)"/></g></g><g transform="translate(116.999 23.799)"><g transform="translate(0)"><path class="a" d="M224.313,435.2h-1.159a1.289,1.289,0,0,0-1.287,1.287v.225A1.289,1.289,0,0,0,223.154,438h1.159a1.289,1.289,0,0,0,1.287-1.287v-.225A1.289,1.289,0,0,0,224.313,435.2Zm.354,1.513a.354.354,0,0,1-.354.354h-1.159a.354.354,0,0,1-.354-.354v-.225a.354.354,0,0,1,.354-.354h1.158a.354.354,0,0,1,.354.354Z" transform="translate(-221.867 -435.2)"/></g></g><g transform="translate(110.933)"><g transform="translate(0)"><path class="a" d="M125.113,0H112.62a1.689,1.689,0,0,0-1.687,1.687V26.312A1.689,1.689,0,0,0,112.62,28h12.492a1.689,1.689,0,0,0,1.687-1.686V1.687A1.689,1.689,0,0,0,125.113,0Zm.753,26.312a.754.754,0,0,1-.753.754H112.62a.754.754,0,0,1-.754-.753V1.687a.754.754,0,0,1,.754-.754h12.492a.754.754,0,0,1,.754.754V26.312Z" transform="translate(-110.933)"/></g></g><g transform="translate(110.933 2.8)"><g transform="translate(0)"><path class="a" d="M126.333,51.2H111.4a.467.467,0,0,0-.467.467v19.6a.467.467,0,0,0,.467.467h14.933a.467.467,0,0,0,.467-.467v-19.6A.467.467,0,0,0,126.333,51.2Zm-.467,19.6h-14V52.133h14Z" transform="translate(-110.934 -51.2)"/></g></g></g></svg>