<svg xmlns="http://www.w3.org/2000/svg" width="22.01" height="22.01" viewBox="0 0 22.01 22.01"><defs><style>.a{fill:#324b4d;}.b{fill:#7eb6af;}</style></defs><g transform="translate(0 0)"><g transform="translate(0 0)"><path class="a" d="M18.786,3.223A11,11,0,0,0,3.223,18.786,11,11,0,1,0,18.786,3.223ZM11,20.72A9.715,9.715,0,1,1,20.72,11,9.726,9.726,0,0,1,11,20.72Z" transform="translate(0 0)"/></g></g><g transform="translate(5.558 7.285)"><path class="b" d="M140,169.656a.645.645,0,0,0-.912,0L133.4,175.35l-3-3a.645.645,0,0,0-.912.912l3.453,3.453a.645.645,0,0,0,.912,0l6.15-6.15A.645.645,0,0,0,140,169.656Z" transform="translate(-129.301 -169.467)"/></g></svg>